M48
; DRILL file {KiCad (6.0.11)} date Wed 22 Feb 2023 21:30:22 GMT
; FORMAT={-:-/ absolute / inch / decimal}
; #@! TF.CreationDate,2023-02-22T21:30:22+00:00
; #@! TF.GenerationSoftware,Kicad,Pcbnew,(6.0.11)
; #@! TF.FileFunction,Plated,1,2,PTH
FMAT,2
INCH
; #@! TA.AperFunction,Plated,PTH,ViaDrill
T1C0.0157
; #@! TA.AperFunction,Plated,PTH,ComponentDrill
T2C0.0236
; #@! TA.AperFunction,Plated,PTH,ComponentDrill
T3C0.0394
; #@! TA.AperFunction,Plated,PTH,ComponentDrill
T4C0.0591
%
G90
G05
T1
X3.2812Y-4.2188
X4.0312Y-4.2188
X4.7812Y-4.2188
X5.5312Y-4.2188
X6.2812Y-4.2188
X7.0312Y-4.2188
X7.7812Y-4.2188
X8.5312Y-4.2188
X9.2812Y-4.2188
X10.0312Y-4.2188
X10.7812Y-4.2188
X11.625Y-4.4062
X11.9062Y-2.9062
X12.0938Y-3.5625
X12.4685Y-2.3268
X12.561Y-3.2657
X12.6398Y-4.0079
X12.6398Y-3.3465
X12.7264Y-3.1378
X12.7756Y-3.8681
X12.814Y-3.248
X12.8435Y-2.3327
X12.8553Y-3.248
X12.8701Y-3.9035
X12.8848Y-2.3327
X12.9626Y-3.8681
X13.0807Y-3.7402
X13.0984Y-3.5728
X13.1004Y-2.7559
X13.1004Y-2.9232
X13.1398Y-3.7697
X13.1398Y-4.3209
X13.1791Y-3.7697
X13.1791Y-4.3209
X13.2382Y-3.5827
X13.4055Y-3.9567
T3
X2.1062Y-3.1939
X2.2062Y-3.1939
T4
X1.7766Y-2.0522
X1.8703Y-4.3022
X1.8703Y-4.7175
X1.9641Y-2.8022
X1.9734Y-2.0325
X2.0578Y-3.5522
X2.0672Y-4.2825
X2.0672Y-4.6978
X2.1609Y-2.7825
X2.2547Y-3.5325
X2.6203Y-2.0522
X2.8078Y-4.3022
X2.8172Y-2.0325
X2.9016Y-4.7175
X2.9953Y-2.8022
X3.0047Y-4.2825
X3.0984Y-4.6978
X3.1828Y-3.5522
X3.1922Y-2.7825
X3.3703Y-2.0522
X3.3797Y-3.5325
X3.5578Y-4.3022
X3.5672Y-2.0325
X3.7453Y-2.8022
X3.7547Y-4.2825
X3.9328Y-3.5522
X3.9328Y-4.7175
X3.9422Y-2.7825
X4.1203Y-2.0522
X4.1297Y-3.5325
X4.1297Y-4.6978
X4.3078Y-4.3022
X4.3172Y-2.0325
X4.4953Y-2.8022
X4.5047Y-4.2825
X4.6828Y-3.5522
X4.6922Y-2.7825
X4.8703Y-2.0522
X4.8797Y-3.5325
X5.0578Y-4.3022
X5.0672Y-2.0325
X5.2453Y-2.8022
X5.2547Y-4.2825
X5.4328Y-3.5522
X5.4422Y-2.7825
X5.6203Y-2.0522
X5.6297Y-3.5325
X5.8078Y-4.3022
X5.8172Y-2.0325
X5.9953Y-2.8022
X6.0047Y-4.2825
X6.1828Y-3.5522
X6.1922Y-2.7825
X6.3703Y-2.0522
X6.3797Y-3.5325
X6.5578Y-4.3022
X6.5672Y-2.0325
X6.7453Y-2.8022
X6.7547Y-4.2825
X6.9328Y-3.5522
X6.9328Y-4.7175
X6.9422Y-2.7825
X7.1203Y-2.0522
X7.1297Y-3.5325
X7.1297Y-4.6978
X7.3078Y-4.3022
X7.3172Y-2.0325
X7.4953Y-2.8022
X7.5047Y-4.2825
X7.6828Y-3.5522
X7.6922Y-2.7825
X7.8703Y-2.0522
X7.8797Y-3.5325
X8.0578Y-4.3022
X8.0672Y-2.0325
X8.2453Y-2.8022
X8.2547Y-4.2825
X8.4328Y-3.5522
X8.4422Y-2.7825
X8.6203Y-2.0522
X8.6297Y-3.5325
X8.8078Y-4.3022
X8.8172Y-2.0325
X8.9953Y-2.8022
X9.0047Y-4.2825
X9.1828Y-3.5522
X9.1922Y-2.7825
X9.3703Y-2.0522
X9.3797Y-3.5325
X9.5578Y-4.3022
X9.5672Y-2.0325
X9.7453Y-2.8022
X9.7547Y-4.2825
X9.9328Y-3.5522
X9.9328Y-4.7175
X9.9422Y-2.7825
X10.1203Y-2.0522
X10.1297Y-3.5325
X10.1297Y-4.6978
X10.3078Y-4.3022
X10.3172Y-2.0325
X10.4953Y-2.8022
X10.5047Y-4.2825
X10.6828Y-3.5522
X10.6922Y-2.7825
X10.8703Y-2.0522
X10.8797Y-3.5325
X10.9641Y-4.7175
X11.0578Y-4.3022
X11.0672Y-2.0325
X11.1609Y-4.6978
X11.2453Y-2.8022
X11.2547Y-4.2825
X11.4328Y-3.5522
X11.4328Y-4.3022
X11.4422Y-2.7825
X11.6297Y-3.5325
X11.6297Y-4.2825
X11.8078Y-4.3022
X11.8078Y-4.7175
X11.8917Y-2.0522
X12.0047Y-4.2825
X12.0047Y-4.6978
X12.0886Y-2.0325
X12.1041Y-2.9016
X12.1238Y-3.0984
X12.5578Y-4.3022
X12.5578Y-4.7175
X12.7547Y-4.2825
X12.7547Y-4.6978
X13.3078Y-2.0522
X13.3078Y-2.8022
X13.3078Y-4.7175
X13.5047Y-2.0325
X13.5047Y-2.7825
X13.5047Y-4.6978
T2
G00X12.6744Y-1.5404
M15
G01X12.6744Y-1.564
M16
G05
G00X12.6744Y-1.6951
M15
G01X12.6744Y-1.7384
M16
G05
G00X13.0146Y-1.5404
M15
G01X13.0146Y-1.564
M16
G05
G00X13.0146Y-1.6951
M15
G01X13.0146Y-1.7384
M16
G05
T0
M30
