G04 #@! TF.GenerationSoftware,KiCad,Pcbnew,(6.0.6)*
G04 #@! TF.CreationDate,2022-07-09T15:48:26+01:00*
G04 #@! TF.ProjectId,borsdorf,626f7273-646f-4726-962e-6b696361645f,rev?*
G04 #@! TF.SameCoordinates,Original*
G04 #@! TF.FileFunction,Paste,Bot*
G04 #@! TF.FilePolarity,Positive*
%FSLAX46Y46*%
G04 Gerber Fmt 4.6, Leading zero omitted, Abs format (unit mm)*
G04 Created by KiCad (PCBNEW (6.0.6)) date 2022-07-09 15:48:26*
%MOMM*%
%LPD*%
G01*
G04 APERTURE LIST*
G04 Aperture macros list*
%AMRoundRect*
0 Rectangle with rounded corners*
0 $1 Rounding radius*
0 $2 $3 $4 $5 $6 $7 $8 $9 X,Y pos of 4 corners*
0 Add a 4 corners polygon primitive as box body*
4,1,4,$2,$3,$4,$5,$6,$7,$8,$9,$2,$3,0*
0 Add four circle primitives for the rounded corners*
1,1,$1+$1,$2,$3*
1,1,$1+$1,$4,$5*
1,1,$1+$1,$6,$7*
1,1,$1+$1,$8,$9*
0 Add four rect primitives between the rounded corners*
20,1,$1+$1,$2,$3,$4,$5,0*
20,1,$1+$1,$4,$5,$6,$7,0*
20,1,$1+$1,$6,$7,$8,$9,0*
20,1,$1+$1,$8,$9,$2,$3,0*%
G04 Aperture macros list end*
%ADD10RoundRect,0.243750X-0.456250X0.243750X-0.456250X-0.243750X0.456250X-0.243750X0.456250X0.243750X0*%
%ADD11RoundRect,0.243750X0.456250X-0.243750X0.456250X0.243750X-0.456250X0.243750X-0.456250X-0.243750X0*%
%ADD12RoundRect,0.243750X-0.243750X-0.456250X0.243750X-0.456250X0.243750X0.456250X-0.243750X0.456250X0*%
%ADD13R,1.200000X0.900000*%
%ADD14R,0.800000X1.000000*%
%ADD15R,1.500000X0.700000*%
%ADD16R,1.060000X0.650000*%
%ADD17RoundRect,0.075000X0.662500X-0.075000X0.662500X0.075000X-0.662500X0.075000X-0.662500X-0.075000X0*%
%ADD18RoundRect,0.075000X0.075000X-0.662500X0.075000X0.662500X-0.075000X0.662500X-0.075000X-0.662500X0*%
%ADD19R,0.650000X1.060000*%
%ADD20R,0.600000X1.450000*%
%ADD21R,0.300000X1.450000*%
%ADD22RoundRect,0.243750X0.243750X0.456250X-0.243750X0.456250X-0.243750X-0.456250X0.243750X-0.456250X0*%
%ADD23RoundRect,0.200000X0.800000X-0.200000X0.800000X0.200000X-0.800000X0.200000X-0.800000X-0.200000X0*%
G04 APERTURE END LIST*
D10*
X315800000Y-54837500D03*
X315800000Y-52962500D03*
X321750000Y-54912500D03*
X321750000Y-53037500D03*
X337500000Y-94787500D03*
X337500000Y-92912500D03*
D11*
X331250000Y-91725000D03*
X331250000Y-93600000D03*
D12*
X322937500Y-98450000D03*
X321062500Y-98450000D03*
X322937500Y-100450000D03*
X321062500Y-100450000D03*
D13*
X292893750Y-119521875D03*
X292893750Y-116221875D03*
D10*
X323800000Y-56787500D03*
X323800000Y-54912500D03*
D12*
X319487500Y-56850000D03*
X317612500Y-56850000D03*
D13*
X57150000Y-51928125D03*
X57150000Y-55228125D03*
X78581250Y-51928125D03*
X78581250Y-55228125D03*
X97631250Y-51928125D03*
X97631250Y-55228125D03*
X116681250Y-51928125D03*
X116681250Y-55228125D03*
X135731250Y-51928125D03*
X135731250Y-55228125D03*
X154781250Y-51928125D03*
X154781250Y-55228125D03*
X173831250Y-51928125D03*
X173831250Y-55228125D03*
X192881250Y-51928125D03*
X192881250Y-55228125D03*
X211931250Y-51928125D03*
X211931250Y-55228125D03*
X230981250Y-51928125D03*
X230981250Y-55228125D03*
X250031250Y-51928125D03*
X250031250Y-55228125D03*
X269081250Y-51928125D03*
X269081250Y-55228125D03*
X288131250Y-51928125D03*
X288131250Y-55228125D03*
X295275000Y-51928125D03*
X295275000Y-55228125D03*
X61912500Y-70978125D03*
X61912500Y-74278125D03*
X88106250Y-70978125D03*
X88106250Y-74278125D03*
X107156250Y-70978125D03*
X107156250Y-74278125D03*
X126206250Y-70978125D03*
X126206250Y-74278125D03*
X145256250Y-70978125D03*
X145256250Y-74278125D03*
X164306250Y-70978125D03*
X164306250Y-74278125D03*
X183356250Y-70978125D03*
X183356250Y-74278125D03*
X202406250Y-70978125D03*
X202406250Y-74278125D03*
X221456250Y-70978125D03*
X221456250Y-74278125D03*
X240506250Y-70978125D03*
X240506250Y-74278125D03*
X259556250Y-70978125D03*
X259556250Y-74278125D03*
X278606250Y-70978125D03*
X278606250Y-74278125D03*
X297656250Y-70978125D03*
X297656250Y-74278125D03*
X64293750Y-90028125D03*
X64293750Y-93328125D03*
X92868750Y-90028125D03*
X92868750Y-93328125D03*
X111918750Y-90028125D03*
X111918750Y-93328125D03*
X130968750Y-90028125D03*
X130968750Y-93328125D03*
X150018750Y-90028125D03*
X150018750Y-93328125D03*
X169068750Y-90028125D03*
X169068750Y-93328125D03*
X188118750Y-90028125D03*
X188118750Y-93328125D03*
X207168750Y-90028125D03*
X207168750Y-93328125D03*
X226218750Y-90028125D03*
X226218750Y-93328125D03*
X245268750Y-90028125D03*
X245268750Y-93328125D03*
X264318750Y-90028125D03*
X264318750Y-93328125D03*
X283368750Y-90028125D03*
X283368750Y-93328125D03*
X302418750Y-90028125D03*
X302418750Y-93328125D03*
X59531250Y-109078125D03*
X59531250Y-112378125D03*
X83343750Y-109078125D03*
X83343750Y-112378125D03*
X102393750Y-109078125D03*
X102393750Y-112378125D03*
X121443750Y-109078125D03*
X121443750Y-112378125D03*
X140493750Y-109078125D03*
X140493750Y-112378125D03*
X159543750Y-109078125D03*
X159543750Y-112378125D03*
X178593750Y-109078125D03*
X178593750Y-112378125D03*
X197643750Y-109078125D03*
X197643750Y-112378125D03*
X216693750Y-109078125D03*
X216693750Y-112378125D03*
X235743750Y-109078125D03*
X235743750Y-112378125D03*
X254793750Y-109078125D03*
X254793750Y-112378125D03*
X271462500Y-109078125D03*
X271462500Y-112378125D03*
X311943750Y-109078125D03*
X311943750Y-112378125D03*
X59531250Y-119521875D03*
X59531250Y-116221875D03*
X85725000Y-119521875D03*
X85725000Y-116221875D03*
X111918750Y-119521875D03*
X111918750Y-116221875D03*
X188118750Y-119521875D03*
X188118750Y-116221875D03*
X245268750Y-119521875D03*
X245268750Y-116221875D03*
X271462500Y-119521875D03*
X271462500Y-116221875D03*
X311943750Y-119521875D03*
X311943750Y-116221875D03*
X330994028Y-51928170D03*
X330994028Y-55228170D03*
X330994028Y-70978186D03*
X330994028Y-74278186D03*
X276225000Y-109078125D03*
X276225000Y-112378125D03*
X330993750Y-109078125D03*
X330993750Y-112378125D03*
X330993750Y-119521875D03*
X330993750Y-116221875D03*
X302419004Y-80503194D03*
X302419004Y-83803194D03*
D11*
X340550000Y-92912500D03*
X340550000Y-94787500D03*
D10*
X50000000Y-82187500D03*
X50000000Y-80312500D03*
D14*
X344220000Y-83850000D03*
X344220000Y-91150000D03*
X346430000Y-91150000D03*
X346430000Y-83850000D03*
D15*
X343570000Y-89750000D03*
X343570000Y-88250000D03*
X343570000Y-85250000D03*
D16*
X317650000Y-53050000D03*
X317650000Y-54950000D03*
X319850000Y-54950000D03*
X319850000Y-54000000D03*
X319850000Y-53050000D03*
D17*
X329162500Y-92750000D03*
X329162500Y-92250000D03*
X329162500Y-91750000D03*
X329162500Y-91250000D03*
X329162500Y-90750000D03*
X329162500Y-90250000D03*
X329162500Y-89750000D03*
X329162500Y-89250000D03*
X329162500Y-88750000D03*
X329162500Y-88250000D03*
X329162500Y-87750000D03*
X329162500Y-87250000D03*
D18*
X327750000Y-85837500D03*
X327250000Y-85837500D03*
X326750000Y-85837500D03*
X326250000Y-85837500D03*
X325750000Y-85837500D03*
X325250000Y-85837500D03*
X324750000Y-85837500D03*
X324250000Y-85837500D03*
X323750000Y-85837500D03*
X323250000Y-85837500D03*
X322750000Y-85837500D03*
X322250000Y-85837500D03*
D17*
X320837500Y-87250000D03*
X320837500Y-87750000D03*
X320837500Y-88250000D03*
X320837500Y-88750000D03*
X320837500Y-89250000D03*
X320837500Y-89750000D03*
X320837500Y-90250000D03*
X320837500Y-90750000D03*
X320837500Y-91250000D03*
X320837500Y-91750000D03*
X320837500Y-92250000D03*
X320837500Y-92750000D03*
D18*
X322250000Y-94162500D03*
X322750000Y-94162500D03*
X323250000Y-94162500D03*
X323750000Y-94162500D03*
X324250000Y-94162500D03*
X324750000Y-94162500D03*
X325250000Y-94162500D03*
X325750000Y-94162500D03*
X326250000Y-94162500D03*
X326750000Y-94162500D03*
X327250000Y-94162500D03*
X327750000Y-94162500D03*
D10*
X328250000Y-48687500D03*
X328250000Y-46812500D03*
X325250000Y-48687500D03*
X325250000Y-46812500D03*
D19*
X326750000Y-57350000D03*
X325800000Y-57350000D03*
X327700000Y-57350000D03*
X327700000Y-55150000D03*
X326750000Y-55150000D03*
X325800000Y-55150000D03*
D11*
X323800000Y-51162500D03*
X323800000Y-53037500D03*
D20*
X329500000Y-44520000D03*
X328700000Y-44520000D03*
X323800000Y-44520000D03*
X323000000Y-44520000D03*
X323000000Y-44520000D03*
X323800000Y-44520000D03*
X328700000Y-44520000D03*
X329500000Y-44520000D03*
D21*
X324500000Y-44520000D03*
X325000000Y-44520000D03*
X325500000Y-44520000D03*
X326500000Y-44520000D03*
X327000000Y-44520000D03*
X327500000Y-44520000D03*
X328000000Y-44520000D03*
X326000000Y-44520000D03*
D12*
X319037500Y-86550000D03*
X317162500Y-86550000D03*
D22*
X328527500Y-81100000D03*
X330402500Y-81100000D03*
X317162500Y-84550000D03*
X319037500Y-84550000D03*
X328527500Y-83075000D03*
X330402500Y-83075000D03*
D23*
X337500000Y-85400000D03*
X337500000Y-89600000D03*
M02*
