%TF.GenerationSoftware,KiCad,Pcbnew,(6.0.6)*%
%TF.CreationDate,2022-07-09T15:48:51+01:00*%
%TF.ProjectId,borsdorf,626f7273-646f-4726-962e-6b696361645f,rev?*%
%TF.SameCoordinates,Original*%
%TF.FileFunction,Plated,1,2,PTH,Mixed*%
%TF.FilePolarity,Positive*%
%FSLAX46Y46*%
G04 Gerber Fmt 4.6, Leading zero omitted, Abs format (unit mm)*
G04 Created by KiCad (PCBNEW (6.0.6)) date 2022-07-09 15:48:51*
%MOMM*%
%LPD*%
G01*
G04 APERTURE LIST*
%TA.AperFunction,ViaDrill*%
%ADD10C,0.400000*%
%TD*%
G04 aperture for slot hole*
%TA.AperFunction,ComponentDrill*%
%ADD11O,0.600000X1.200000*%
%TD*%
G04 aperture for slot hole*
%TA.AperFunction,ComponentDrill*%
%ADD12O,0.600000X1.700000*%
%TD*%
%TA.AperFunction,ComponentDrill*%
%ADD13C,1.000000*%
%TD*%
%TA.AperFunction,ComponentDrill*%
%ADD14C,1.500000*%
%TD*%
G04 APERTURE END LIST*
D10*
X316700000Y-59100000D03*
X319050000Y-82950000D03*
X321050000Y-101800000D03*
X321050001Y-84999999D03*
X323250000Y-79700000D03*
X324550000Y-98350000D03*
X326225000Y-59250000D03*
X326225000Y-83750000D03*
X326900000Y-99149998D03*
X327275000Y-59250000D03*
X327275000Y-83750000D03*
X331600000Y-94850000D03*
X332700000Y-90750000D03*
X332750000Y-70000010D03*
X332750000Y-74250000D03*
X336149998Y-93300000D03*
X340550000Y-91299998D03*
X342000000Y-85500000D03*
D11*
%TO.C,J1*%
X321930000Y-39425000D03*
D12*
X321930000Y-43605000D03*
D11*
X330570000Y-39425000D03*
D12*
X330570000Y-43605000D03*
D13*
%TO.C,K30*%
X53498750Y-81225000D03*
X56038750Y-81225000D03*
D14*
%TO.C,K1*%
X45125000Y-52125000D03*
%TO.C,K44*%
X47506250Y-109275000D03*
%TO.C,K59*%
X47506250Y-119825000D03*
%TO.C,K16*%
X49887500Y-71175000D03*
%TO.C,K1*%
X50125000Y-51625000D03*
%TO.C,K30*%
X52268750Y-90225000D03*
%TO.C,K44*%
X52506250Y-108775000D03*
%TO.C,K59*%
X52506250Y-119325000D03*
%TO.C,K16*%
X54887500Y-70675000D03*
%TO.C,K30*%
X57268750Y-89725000D03*
%TO.C,K2*%
X66556250Y-52125000D03*
%TO.C,K45*%
X71318750Y-109275000D03*
%TO.C,K2*%
X71556250Y-51625000D03*
%TO.C,K60*%
X73700000Y-119825000D03*
%TO.C,K17*%
X76081250Y-71175000D03*
%TO.C,K45*%
X76318750Y-108775000D03*
%TO.C,K60*%
X78700000Y-119325000D03*
%TO.C,K31*%
X80843750Y-90225000D03*
%TO.C,K17*%
X81081250Y-70675000D03*
%TO.C,K3*%
X85606250Y-52125000D03*
%TO.C,K31*%
X85843750Y-89725000D03*
%TO.C,K46*%
X90368750Y-109275000D03*
%TO.C,K3*%
X90606250Y-51625000D03*
%TO.C,K18*%
X95131250Y-71175000D03*
%TO.C,K46*%
X95368750Y-108775000D03*
%TO.C,K32*%
X99893750Y-90225000D03*
%TO.C,K61*%
X99893750Y-119825000D03*
%TO.C,K18*%
X100131250Y-70675000D03*
%TO.C,K4*%
X104656250Y-52125000D03*
%TO.C,K32*%
X104893750Y-89725000D03*
%TO.C,K61*%
X104893750Y-119325000D03*
%TO.C,K47*%
X109418750Y-109275000D03*
%TO.C,K4*%
X109656250Y-51625000D03*
%TO.C,K19*%
X114181250Y-71175000D03*
%TO.C,K47*%
X114418750Y-108775000D03*
%TO.C,K33*%
X118943750Y-90225000D03*
%TO.C,K19*%
X119181250Y-70675000D03*
%TO.C,K5*%
X123706250Y-52125000D03*
%TO.C,K33*%
X123943750Y-89725000D03*
%TO.C,K48*%
X128468750Y-109275000D03*
%TO.C,K5*%
X128706250Y-51625000D03*
%TO.C,K20*%
X133231250Y-71175000D03*
%TO.C,K48*%
X133468750Y-108775000D03*
%TO.C,K34*%
X137993750Y-90225000D03*
%TO.C,K20*%
X138231250Y-70675000D03*
%TO.C,K6*%
X142756250Y-52125000D03*
%TO.C,K34*%
X142993750Y-89725000D03*
%TO.C,K49*%
X147518750Y-109275000D03*
%TO.C,K6*%
X147756250Y-51625000D03*
%TO.C,K21*%
X152281250Y-71175000D03*
%TO.C,K49*%
X152518750Y-108775000D03*
%TO.C,K35*%
X157043750Y-90225000D03*
%TO.C,K21*%
X157281250Y-70675000D03*
%TO.C,K7*%
X161806250Y-52125000D03*
%TO.C,K35*%
X162043750Y-89725000D03*
%TO.C,K50*%
X166568750Y-109275000D03*
%TO.C,K7*%
X166806250Y-51625000D03*
%TO.C,K22*%
X171331250Y-71175000D03*
%TO.C,K50*%
X171568750Y-108775000D03*
%TO.C,K36*%
X176093750Y-90225000D03*
%TO.C,K62*%
X176093750Y-119825000D03*
%TO.C,K22*%
X176331250Y-70675000D03*
%TO.C,K8*%
X180856250Y-52125000D03*
%TO.C,K36*%
X181093750Y-89725000D03*
%TO.C,K62*%
X181093750Y-119325000D03*
%TO.C,K51*%
X185618750Y-109275000D03*
%TO.C,K8*%
X185856250Y-51625000D03*
%TO.C,K23*%
X190381250Y-71175000D03*
%TO.C,K51*%
X190618750Y-108775000D03*
%TO.C,K37*%
X195143750Y-90225000D03*
%TO.C,K23*%
X195381250Y-70675000D03*
%TO.C,K9*%
X199906250Y-52125000D03*
%TO.C,K37*%
X200143750Y-89725000D03*
%TO.C,K52*%
X204668750Y-109275000D03*
%TO.C,K9*%
X204906250Y-51625000D03*
%TO.C,K24*%
X209431250Y-71175000D03*
%TO.C,K52*%
X209668750Y-108775000D03*
%TO.C,K38*%
X214193750Y-90225000D03*
%TO.C,K24*%
X214431250Y-70675000D03*
%TO.C,K10*%
X218956250Y-52125000D03*
%TO.C,K38*%
X219193750Y-89725000D03*
%TO.C,K53*%
X223718750Y-109275000D03*
%TO.C,K10*%
X223956250Y-51625000D03*
%TO.C,K25*%
X228481250Y-71175000D03*
%TO.C,K53*%
X228718750Y-108775000D03*
%TO.C,K39*%
X233243750Y-90225000D03*
%TO.C,K25*%
X233481250Y-70675000D03*
%TO.C,K11*%
X238006250Y-52125000D03*
%TO.C,K39*%
X238243750Y-89725000D03*
%TO.C,K54*%
X242768750Y-109275000D03*
%TO.C,K11*%
X243006250Y-51625000D03*
%TO.C,K26*%
X247531250Y-71175000D03*
%TO.C,K54*%
X247768750Y-108775000D03*
%TO.C,K40*%
X252293750Y-90225000D03*
%TO.C,K63*%
X252293750Y-119825000D03*
%TO.C,K26*%
X252531250Y-70675000D03*
%TO.C,K12*%
X257056250Y-52125000D03*
%TO.C,K40*%
X257293750Y-89725000D03*
%TO.C,K63*%
X257293750Y-119325000D03*
%TO.C,K55*%
X261818750Y-109275000D03*
%TO.C,K12*%
X262056250Y-51625000D03*
%TO.C,K27*%
X266581250Y-71175000D03*
%TO.C,K55*%
X266818750Y-108775000D03*
%TO.C,K41*%
X271343750Y-90225000D03*
%TO.C,K27*%
X271581250Y-70675000D03*
%TO.C,K13*%
X276106250Y-52125000D03*
%TO.C,K41*%
X276343750Y-89725000D03*
%TO.C,K64*%
X278487500Y-119825000D03*
%TO.C,K56-2*%
X280868750Y-109275000D03*
%TO.C,K13*%
X281106250Y-51625000D03*
%TO.C,K64*%
X283487500Y-119325000D03*
%TO.C,K28*%
X285631250Y-71175000D03*
%TO.C,K56-2*%
X285868750Y-108775000D03*
%TO.C,K42*%
X290393750Y-90225000D03*
%TO.C,K56*%
X290393750Y-109275000D03*
%TO.C,K28*%
X290631250Y-70675000D03*
%TO.C,K42*%
X295393750Y-89725000D03*
%TO.C,K56*%
X295393750Y-108775000D03*
%TO.C,K57*%
X299918750Y-109275000D03*
%TO.C,K65*%
X299918750Y-119825000D03*
%TO.C,K14*%
X302050000Y-52125000D03*
%TO.C,K57*%
X304918750Y-108775000D03*
%TO.C,K65*%
X304918750Y-119325000D03*
%TO.C,K14*%
X307050000Y-51625000D03*
%TO.C,K43*%
X307443750Y-73700000D03*
X307943750Y-78700000D03*
%TO.C,K58*%
X318968750Y-109275000D03*
%TO.C,K66*%
X318968750Y-119825000D03*
%TO.C,K58*%
X323968750Y-108775000D03*
%TO.C,K66*%
X323968750Y-119325000D03*
%TO.C,K15*%
X338018750Y-52125000D03*
%TO.C,K29*%
X338018750Y-71175000D03*
%TO.C,K67*%
X338018750Y-119825000D03*
%TO.C,K15*%
X343018750Y-51625000D03*
%TO.C,K29*%
X343018750Y-70675000D03*
%TO.C,K67*%
X343018750Y-119325000D03*
M02*
