M48
; DRILL file {KiCad 5.1.5} date Wed 22 Jan 2020 21:44:02 UTC
; FORMAT={-:-/ absolute / inch / decimal}
; #@! TF.CreationDate,2020-01-22T21:44:02+00:00
; #@! TF.GenerationSoftware,Kicad,Pcbnew,5.1.5
; #@! TF.FileFunction,Plated,1,2,PTH
FMAT,2
INCH
T1C0.0157
T2C0.0236
T3C0.0394
T4C0.0591
%
G90
G05
T1
X12.5295Y-2.1949
X12.5295Y-3.2382
X12.6673Y-3.9469
X12.815Y-2.874
X12.815Y-2.3327
X12.815Y-2.9232
X12.815Y-4.0157
X12.9134Y-2.3327
X12.9134Y-2.874
X12.9134Y-2.9232
X13.0217Y-3.3071
X13.0315Y-3.8484
X13.1004Y-2.7559
X13.1004Y-2.9232
X13.1102Y-3.6417
X13.1924Y-3.4907
X13.248Y-3.7697
X13.4547Y-3.3268
T3
X2.1062Y-3.1978
X2.2062Y-3.1978
T4
X5.2453Y-2.8022
X5.4422Y-2.7825
X2.8078Y-4.3022
X3.0047Y-4.2825
X10.9641Y-4.7175
X11.1609Y-4.6978
X7.1203Y-2.0522
X7.3172Y-2.0325
X9.9328Y-3.5522
X10.1297Y-3.5325
X5.0578Y-4.3022
X5.2547Y-4.2825
X3.5578Y-4.3022
X3.7547Y-4.2825
X6.3703Y-2.0522
X6.5672Y-2.0325
X10.4953Y-2.8022
X10.6922Y-2.7825
X4.8703Y-2.0522
X5.0672Y-2.0325
X1.8703Y-4.3022
X2.0672Y-4.2825
X7.4953Y-2.8022
X7.6922Y-2.7825
X11.4328Y-3.5522
X11.6297Y-3.5325
X8.9953Y-2.8022
X9.1922Y-2.7825
X3.1828Y-3.5522
X3.3797Y-3.5325
X3.3703Y-2.0522
X3.5672Y-2.0325
X6.1828Y-3.5522
X6.3797Y-3.5325
X9.7453Y-2.8022
X9.9422Y-2.7825
X9.5578Y-4.3022
X9.7547Y-4.2825
X3.9328Y-3.5522
X4.1297Y-3.5325
X8.2453Y-2.8022
X8.4422Y-2.7825
X5.8078Y-4.3022
X6.0047Y-4.2825
X4.4953Y-2.8022
X4.6922Y-2.7825
X13.3078Y-4.7175
X13.5047Y-4.6978
X1.7766Y-2.0522
X1.9734Y-2.0325
X8.8078Y-4.3022
X9.0047Y-4.2825
X7.3078Y-4.3022
X7.5047Y-4.2825
X2.9953Y-2.8022
X3.1922Y-2.7825
X13.3078Y-2.8022
X13.5047Y-2.7825
X11.2453Y-2.8022
X11.4422Y-2.7825
X11.8078Y-4.7175
X12.0047Y-4.6978
X11.8078Y-4.3022
X12.0047Y-4.2825
X10.1203Y-2.0522
X10.3172Y-2.0325
X1.8703Y-4.7175
X2.0672Y-4.6978
X10.3078Y-4.3022
X10.5047Y-4.2825
X6.5578Y-4.3022
X6.7547Y-4.2825
X2.6203Y-2.0522
X2.8172Y-2.0325
X10.6828Y-3.5522
X10.8797Y-3.5325
X8.6203Y-2.0522
X8.8172Y-2.0325
X1.9641Y-2.8022
X2.1609Y-2.7825
X8.0578Y-4.3022
X8.2547Y-4.2825
X12.5578Y-4.7175
X12.7547Y-4.6978
X6.7453Y-2.8022
X6.9422Y-2.7825
X5.9953Y-2.8022
X6.1922Y-2.7825
X4.1203Y-2.0522
X4.3172Y-2.0325
X2.0578Y-3.5522
X2.2547Y-3.5325
X6.9328Y-3.5522
X7.1297Y-3.5325
X11.9016Y-2.0522
X12.0984Y-2.0325
X8.4328Y-3.5522
X8.6297Y-3.5325
X13.3078Y-2.0522
X13.5047Y-2.0325
X4.3078Y-4.3022
X4.5047Y-4.2825
X10.8703Y-2.0522
X11.0672Y-2.0325
X3.7453Y-2.8022
X3.9422Y-2.7825
X9.3703Y-2.0522
X9.5672Y-2.0325
X12.1041Y-2.9016
X12.1238Y-3.0984
X12.5578Y-4.3022
X12.7547Y-4.2825
X11.0578Y-4.3022
X11.2547Y-4.2825
X3.9328Y-4.7175
X4.1297Y-4.6978
X9.9328Y-4.7175
X10.1297Y-4.6978
X4.6828Y-3.5522
X4.8797Y-3.5325
X5.4328Y-3.5522
X5.6297Y-3.5325
X7.6828Y-3.5522
X7.8797Y-3.5325
X6.9328Y-4.7175
X7.1297Y-4.6978
X5.6203Y-2.0522
X5.8172Y-2.0325
X2.9016Y-4.7175
X3.0984Y-4.6978
X7.8703Y-2.0522
X8.0672Y-2.0325
X9.1828Y-3.5522
X9.3797Y-3.5325
X11.4328Y-4.3022
X11.6297Y-4.2825
T2
G00X12.6737Y-1.5404
M15
G01X12.6737Y-1.564
M16
G05
G00X12.6737Y-1.6951
M15
G01X12.6737Y-1.7384
M16
G05
G00X13.0138Y-1.5404
M15
G01X13.0138Y-1.564
M16
G05
G00X13.0138Y-1.6951
M15
G01X13.0138Y-1.7384
M16
G05
T0
M30
