G04 #@! TF.GenerationSoftware,KiCad,Pcbnew,(6.0.11)*
G04 #@! TF.CreationDate,2023-02-22T21:30:24+00:00*
G04 #@! TF.ProjectId,borsdorf,626f7273-646f-4726-962e-6b696361645f,rev?*
G04 #@! TF.SameCoordinates,Original*
G04 #@! TF.FileFunction,Soldermask,Bot*
G04 #@! TF.FilePolarity,Negative*
%FSLAX46Y46*%
G04 Gerber Fmt 4.6, Leading zero omitted, Abs format (unit mm)*
G04 Created by KiCad (PCBNEW (6.0.11)) date 2023-02-22 21:30:24*
%MOMM*%
%LPD*%
G01*
G04 APERTURE LIST*
G04 Aperture macros list*
%AMRoundRect*
0 Rectangle with rounded corners*
0 $1 Rounding radius*
0 $2 $3 $4 $5 $6 $7 $8 $9 X,Y pos of 4 corners*
0 Add a 4 corners polygon primitive as box body*
4,1,4,$2,$3,$4,$5,$6,$7,$8,$9,$2,$3,0*
0 Add four circle primitives for the rounded corners*
1,1,$1+$1,$2,$3*
1,1,$1+$1,$4,$5*
1,1,$1+$1,$6,$7*
1,1,$1+$1,$8,$9*
0 Add four rect primitives between the rounded corners*
20,1,$1+$1,$2,$3,$4,$5,0*
20,1,$1+$1,$4,$5,$6,$7,0*
20,1,$1+$1,$6,$7,$8,$9,0*
20,1,$1+$1,$8,$9,$2,$3,0*%
G04 Aperture macros list end*
%ADD10C,2.540000*%
%ADD11RoundRect,0.476250X0.476250X0.476250X-0.476250X0.476250X-0.476250X-0.476250X0.476250X-0.476250X0*%
%ADD12C,1.905000*%
%ADD13RoundRect,0.243750X0.456250X-0.243750X0.456250X0.243750X-0.456250X0.243750X-0.456250X-0.243750X0*%
%ADD14RoundRect,0.243750X0.243750X0.456250X-0.243750X0.456250X-0.243750X-0.456250X0.243750X-0.456250X0*%
%ADD15RoundRect,0.243750X-0.456250X0.243750X-0.456250X-0.243750X0.456250X-0.243750X0.456250X0.243750X0*%
%ADD16RoundRect,0.150000X-0.150000X0.587500X-0.150000X-0.587500X0.150000X-0.587500X0.150000X0.587500X0*%
%ADD17RoundRect,0.075000X0.075000X-0.662500X0.075000X0.662500X-0.075000X0.662500X-0.075000X-0.662500X0*%
%ADD18RoundRect,0.075000X0.662500X-0.075000X0.662500X0.075000X-0.662500X0.075000X-0.662500X-0.075000X0*%
%ADD19RoundRect,0.150000X-0.150000X0.512500X-0.150000X-0.512500X0.150000X-0.512500X0.150000X0.512500X0*%
%ADD20RoundRect,0.200000X0.800000X-0.200000X0.800000X0.200000X-0.800000X0.200000X-0.800000X-0.200000X0*%
%ADD21R,1.060000X0.650000*%
%ADD22C,0.650000*%
%ADD23R,0.600000X1.450000*%
%ADD24R,0.300000X1.450000*%
%ADD25O,1.000000X2.100000*%
%ADD26O,1.000000X1.600000*%
%ADD27RoundRect,0.243750X-0.243750X-0.456250X0.243750X-0.456250X0.243750X0.456250X-0.243750X0.456250X0*%
%ADD28RoundRect,0.250000X-0.250000X-0.475000X0.250000X-0.475000X0.250000X0.475000X-0.250000X0.475000X0*%
%ADD29RoundRect,0.250000X0.475000X-0.250000X0.475000X0.250000X-0.475000X0.250000X-0.475000X-0.250000X0*%
%ADD30RoundRect,0.250000X0.262500X0.450000X-0.262500X0.450000X-0.262500X-0.450000X0.262500X-0.450000X0*%
%ADD31R,0.600000X0.450000*%
%ADD32RoundRect,0.250000X-0.262500X-0.450000X0.262500X-0.450000X0.262500X0.450000X-0.262500X0.450000X0*%
%ADD33RoundRect,0.250000X-0.450000X0.262500X-0.450000X-0.262500X0.450000X-0.262500X0.450000X0.262500X0*%
G04 APERTURE END LIST*
D10*
X52268750Y-90225000D03*
X57268750Y-89725000D03*
D11*
X56038750Y-81125000D03*
D12*
X53498750Y-81125000D03*
D10*
X307443750Y-73700000D03*
X307943750Y-78700000D03*
X280868750Y-109275000D03*
X285868750Y-108775000D03*
X45125000Y-52125000D03*
X50125000Y-51625000D03*
X66556250Y-52125000D03*
X71556250Y-51625000D03*
X85606250Y-52125000D03*
X90606250Y-51625000D03*
X104656250Y-52125000D03*
X109656250Y-51625000D03*
X123706250Y-52125000D03*
X128706250Y-51625000D03*
X142756250Y-52125000D03*
X147756250Y-51625000D03*
X161806250Y-52125000D03*
X166806250Y-51625000D03*
X180856250Y-52125000D03*
X185856250Y-51625000D03*
X199906250Y-52125000D03*
X204906250Y-51625000D03*
X218956250Y-52125000D03*
X223956250Y-51625000D03*
X238006250Y-52125000D03*
X243006250Y-51625000D03*
X257056250Y-52125000D03*
X262056250Y-51625000D03*
X276106250Y-52125000D03*
X281106250Y-51625000D03*
X302050000Y-52125000D03*
X307050000Y-51625000D03*
X49887500Y-71175000D03*
X54887500Y-70675000D03*
X76081250Y-71175000D03*
X81081250Y-70675000D03*
X95131250Y-71175000D03*
X100131250Y-70675000D03*
X114181250Y-71175000D03*
X119181250Y-70675000D03*
X133231250Y-71175000D03*
X138231250Y-70675000D03*
X152281250Y-71175000D03*
X157281250Y-70675000D03*
X171331250Y-71175000D03*
X176331250Y-70675000D03*
X190381250Y-71175000D03*
X195381250Y-70675000D03*
X209431250Y-71175000D03*
X214431250Y-70675000D03*
X228481250Y-71175000D03*
X233481250Y-70675000D03*
X247531250Y-71175000D03*
X252531250Y-70675000D03*
X266581250Y-71175000D03*
X271581250Y-70675000D03*
X285631250Y-71175000D03*
X290631250Y-70675000D03*
X80843750Y-90225000D03*
X85843750Y-89725000D03*
X99893750Y-90225000D03*
X104893750Y-89725000D03*
X118943750Y-90225000D03*
X123943750Y-89725000D03*
X137993750Y-90225000D03*
X142993750Y-89725000D03*
X157043750Y-90225000D03*
X162043750Y-89725000D03*
X176093750Y-90225000D03*
X181093750Y-89725000D03*
X195143750Y-90225000D03*
X200143750Y-89725000D03*
X214193750Y-90225000D03*
X219193750Y-89725000D03*
X233243750Y-90225000D03*
X238243750Y-89725000D03*
X252293750Y-90225000D03*
X257293750Y-89725000D03*
X271343750Y-90225000D03*
X276343750Y-89725000D03*
X47506250Y-109275000D03*
X52506250Y-108775000D03*
X90368750Y-109275000D03*
X95368750Y-108775000D03*
X109418750Y-109275000D03*
X114418750Y-108775000D03*
X128468750Y-109275000D03*
X133468750Y-108775000D03*
X147518750Y-109275000D03*
X152518750Y-108775000D03*
X166568750Y-109275000D03*
X171568750Y-108775000D03*
X185618750Y-109275000D03*
X190618750Y-108775000D03*
X204668750Y-109275000D03*
X209668750Y-108775000D03*
X223718750Y-109275000D03*
X228718750Y-108775000D03*
X242768750Y-109275000D03*
X247768750Y-108775000D03*
X261818750Y-109275000D03*
X266818750Y-108775000D03*
X299918750Y-109275000D03*
X304918750Y-108775000D03*
X78700000Y-119325000D03*
X73700000Y-119825000D03*
X104893750Y-119325000D03*
X99893750Y-119825000D03*
X181093750Y-119325000D03*
X176093750Y-119825000D03*
X257293750Y-119325000D03*
X252293750Y-119825000D03*
X283487500Y-119325000D03*
X278487500Y-119825000D03*
X304918750Y-119325000D03*
X299918750Y-119825000D03*
X323968750Y-119325000D03*
X318968750Y-119825000D03*
X338018750Y-52125000D03*
X343018750Y-51625000D03*
X338018750Y-71175000D03*
X343018750Y-70675000D03*
X343018750Y-119325000D03*
X338018750Y-119825000D03*
X290393750Y-90225000D03*
X295393750Y-89725000D03*
X318968750Y-109275000D03*
X323968750Y-108775000D03*
X290393750Y-109275000D03*
X295393750Y-108775000D03*
X71318750Y-109275000D03*
X76318750Y-108775000D03*
X52506250Y-119325000D03*
X47506250Y-119825000D03*
D13*
X333250000Y-93687500D03*
X333250000Y-91812500D03*
D14*
X330187500Y-83000000D03*
X328312500Y-83000000D03*
D15*
X321750000Y-53062500D03*
X321750000Y-54937500D03*
D16*
X299087500Y-72881250D03*
X300987500Y-72881250D03*
X300037500Y-74756250D03*
D17*
X327750000Y-94162500D03*
X327250000Y-94162500D03*
X326750000Y-94162500D03*
X326250000Y-94162500D03*
X325750000Y-94162500D03*
X325250000Y-94162500D03*
X324750000Y-94162500D03*
X324250000Y-94162500D03*
X323750000Y-94162500D03*
X323250000Y-94162500D03*
X322750000Y-94162500D03*
X322250000Y-94162500D03*
D18*
X320837500Y-92750000D03*
X320837500Y-92250000D03*
X320837500Y-91750000D03*
X320837500Y-91250000D03*
X320837500Y-90750000D03*
X320837500Y-90250000D03*
X320837500Y-89750000D03*
X320837500Y-89250000D03*
X320837500Y-88750000D03*
X320837500Y-88250000D03*
X320837500Y-87750000D03*
X320837500Y-87250000D03*
D17*
X322250000Y-85837500D03*
X322750000Y-85837500D03*
X323250000Y-85837500D03*
X323750000Y-85837500D03*
X324250000Y-85837500D03*
X324750000Y-85837500D03*
X325250000Y-85837500D03*
X325750000Y-85837500D03*
X326250000Y-85837500D03*
X326750000Y-85837500D03*
X327250000Y-85837500D03*
X327750000Y-85837500D03*
D18*
X329162500Y-87250000D03*
X329162500Y-87750000D03*
X329162500Y-88250000D03*
X329162500Y-88750000D03*
X329162500Y-89250000D03*
X329162500Y-89750000D03*
X329162500Y-90250000D03*
X329162500Y-90750000D03*
X329162500Y-91250000D03*
X329162500Y-91750000D03*
X329162500Y-92250000D03*
X329162500Y-92750000D03*
D14*
X336437500Y-100750000D03*
X334562500Y-100750000D03*
D19*
X325800000Y-55112500D03*
X326750000Y-55112500D03*
X327700000Y-55112500D03*
X327700000Y-57387500D03*
X326750000Y-57387500D03*
X325800000Y-57387500D03*
D15*
X328250000Y-46812500D03*
X328250000Y-48687500D03*
D20*
X340500000Y-102600000D03*
X340500000Y-98400000D03*
D21*
X319850000Y-53050000D03*
X319850000Y-54000000D03*
X319850000Y-54950000D03*
X317650000Y-54950000D03*
X317650000Y-53050000D03*
D22*
X323360000Y-43075000D03*
X329140000Y-43075000D03*
D23*
X323000000Y-44520000D03*
X323800000Y-44520000D03*
D24*
X325000000Y-44520000D03*
X326000000Y-44520000D03*
X326500000Y-44520000D03*
X327500000Y-44520000D03*
D23*
X328700000Y-44520000D03*
X329500000Y-44520000D03*
X329500000Y-44520000D03*
X328700000Y-44520000D03*
D24*
X328000000Y-44520000D03*
X327000000Y-44520000D03*
X325500000Y-44520000D03*
X324500000Y-44520000D03*
D23*
X323800000Y-44520000D03*
X323000000Y-44520000D03*
D25*
X321930000Y-43605000D03*
D26*
X321930000Y-39425000D03*
D25*
X330570000Y-43605000D03*
D26*
X330570000Y-39425000D03*
D27*
X317162500Y-86550000D03*
X319037500Y-86550000D03*
D14*
X330187500Y-81000000D03*
X328312500Y-81000000D03*
D27*
X331062500Y-100500000D03*
X332937500Y-100500000D03*
X321062500Y-100500000D03*
X322937500Y-100500000D03*
X321062500Y-98500000D03*
X322937500Y-98500000D03*
D14*
X319037500Y-84550000D03*
X317162500Y-84550000D03*
D15*
X323800000Y-54912500D03*
X323800000Y-56787500D03*
D13*
X323800000Y-53037500D03*
X323800000Y-51162500D03*
D28*
X317550000Y-57000000D03*
X319450000Y-57000000D03*
D16*
X268131250Y-122887500D03*
X270031250Y-122887500D03*
X269081250Y-124762500D03*
X310993750Y-122887500D03*
X312893750Y-122887500D03*
X311943750Y-124762500D03*
X63343750Y-72881250D03*
X65243750Y-72881250D03*
X64293750Y-74756250D03*
X210981250Y-53831250D03*
X212881250Y-53831250D03*
X211931250Y-55706250D03*
X101443750Y-110981250D03*
X103343750Y-110981250D03*
X102393750Y-112856250D03*
D29*
X331250000Y-93700000D03*
X331250000Y-91800000D03*
D16*
X225268750Y-91931250D03*
X227168750Y-91931250D03*
X226218750Y-93806250D03*
X182406250Y-72881250D03*
X184306250Y-72881250D03*
X183356250Y-74756250D03*
X253843750Y-110981250D03*
X255743750Y-110981250D03*
X254793750Y-112856250D03*
D30*
X332912500Y-98500000D03*
X331087500Y-98500000D03*
D16*
X113350000Y-122887500D03*
X115250000Y-122887500D03*
X114300000Y-124762500D03*
X289562500Y-53831250D03*
X291462500Y-53831250D03*
X290512500Y-55706250D03*
X96681250Y-53831250D03*
X98581250Y-53831250D03*
X97631250Y-55706250D03*
X220506250Y-72881250D03*
X222406250Y-72881250D03*
X221456250Y-74756250D03*
X310993750Y-110981250D03*
X312893750Y-110981250D03*
X311943750Y-112856250D03*
X258606250Y-72881250D03*
X260506250Y-72881250D03*
X259556250Y-74756250D03*
D31*
X334450000Y-98500000D03*
X336550000Y-98500000D03*
D16*
X330043750Y-110981250D03*
X331943750Y-110981250D03*
X330993750Y-112856250D03*
X60962500Y-110981250D03*
X62862500Y-110981250D03*
X61912500Y-112856250D03*
X215743750Y-110981250D03*
X217643750Y-110981250D03*
X216693750Y-112856250D03*
D32*
X53856250Y-76000000D03*
X55681250Y-76000000D03*
D16*
X139543750Y-110981250D03*
X141443750Y-110981250D03*
X140493750Y-112856250D03*
X187168750Y-91931250D03*
X189068750Y-91931250D03*
X188118750Y-93806250D03*
X249081250Y-53831250D03*
X250981250Y-53831250D03*
X250031250Y-55706250D03*
X330043750Y-122887500D03*
X331943750Y-122887500D03*
X330993750Y-124762500D03*
X263368750Y-91931250D03*
X265268750Y-91931250D03*
X264318750Y-93806250D03*
D19*
X334550000Y-102862500D03*
X336450000Y-102862500D03*
X335500000Y-105137500D03*
D16*
X172881250Y-53831250D03*
X174781250Y-53831250D03*
X173831250Y-55706250D03*
X65725000Y-91931250D03*
X67625000Y-91931250D03*
X66675000Y-93806250D03*
X60962500Y-122887500D03*
X62862500Y-122887500D03*
X61912500Y-124762500D03*
X106206250Y-72881250D03*
X108106250Y-72881250D03*
X107156250Y-74756250D03*
X134781250Y-53831250D03*
X136681250Y-53831250D03*
X135731250Y-55706250D03*
X177643750Y-110981250D03*
X179543750Y-110981250D03*
X178593750Y-112856250D03*
X58581250Y-53831250D03*
X60481250Y-53831250D03*
X59531250Y-55706250D03*
D33*
X325250000Y-46837500D03*
X325250000Y-48662500D03*
D16*
X149068750Y-91931250D03*
X150968750Y-91931250D03*
X150018750Y-93806250D03*
X301468750Y-91931250D03*
X303368750Y-91931250D03*
X302418750Y-93806250D03*
X330043750Y-53831250D03*
X331943750Y-53831250D03*
X330993750Y-55706250D03*
X110968750Y-91931250D03*
X112868750Y-91931250D03*
X111918750Y-93806250D03*
X144306250Y-72881250D03*
X146206250Y-72881250D03*
X145256250Y-74756250D03*
M02*
